<svg viewBox="0 0 960 720" xmlns="http://www.w3.org/2000/svg" font-family="Arial, Helvetica, sans-serif">
  <defs>
    <linearGradient id="bg3" x1="0" y1="0" x2="1" y2="1">
      <stop offset="0%" stop-color="#eefdf3"/>
      <stop offset="100%" stop-color="#d5fae2"/>
    </linearGradient>
  </defs>

  <rect width="960" height="720" fill="url(#bg3)"/>

  <!-- laptop base -->
  <rect x="120" y="120" width="720" height="440" rx="16" fill="#06120c"/>
  <rect x="140" y="140" width="680" height="400" rx="4" fill="#f7faf8"/>
  <rect x="60" y="560" width="840" height="26" rx="8" fill="#0b1a12"/>

  <!-- top bar -->
  <rect x="140" y="140" width="680" height="44" fill="#ffffff"/>
  <circle cx="164" cy="162" r="5" fill="#f97066"/>
  <circle cx="182" cy="162" r="5" fill="#fdb022"/>
  <circle cx="200" cy="162" r="5" fill="#17b862"/>
  <text x="740" y="167" font-size="12" font-weight="700" fill="#06120c" opacity="0.5">Sáb, 21:40</text>

  <!-- sidebar -->
  <rect x="140" y="184" width="150" height="356" fill="#06120c"/>
  <text x="164" y="220" font-size="13" font-weight="800" fill="#3fd47f">Athletto</text>
  <rect x="160" y="248" width="118" height="30" rx="8" fill="#17b862"/>
  <text x="174" y="267" font-size="12" font-weight="700" fill="#ffffff">Fechamento</text>
  <text x="174" y="308" font-size="12" fill="#ffffff" opacity="0.55">Turmas</text>
  <text x="174" y="340" font-size="12" fill="#ffffff" opacity="0.55">Alunos</text>
  <text x="174" y="372" font-size="12" fill="#ffffff" opacity="0.55">Unidades</text>

  <!-- header -->
  <text x="312" y="216" font-size="18" font-weight="800" fill="#06120c">Fechamento de outubro</text>
  <text x="312" y="236" font-size="12" fill="#06120c" opacity="0.5">Unidade Centro</text>

  <!-- stat cards -->
  <g>
    <rect x="312" y="254" width="150" height="86" rx="14" fill="#ffffff" stroke="#06120c" stroke-opacity="0.06"/>
    <text x="330" y="280" font-size="11" font-weight="700" fill="#06120c" opacity="0.45">RECEBIDO</text>
    <text x="330" y="312" font-size="20" font-weight="800" fill="#0b9450">R$ 4.280</text>
  </g>
  <g>
    <rect x="474" y="254" width="150" height="86" rx="14" fill="#ffffff" stroke="#06120c" stroke-opacity="0.06"/>
    <text x="492" y="280" font-size="11" font-weight="700" fill="#06120c" opacity="0.45">EM ABERTO</text>
    <text x="492" y="312" font-size="20" font-weight="800" fill="#06120c">R$ 320</text>
  </g>
  <g>
    <rect x="636" y="254" width="150" height="86" rx="14" fill="#ffffff" stroke="#06120c" stroke-opacity="0.06"/>
    <text x="654" y="280" font-size="11" font-weight="700" fill="#06120c" opacity="0.45">PRESENÇA</text>
    <text x="654" y="312" font-size="20" font-weight="800" fill="#06120c">92%</text>
  </g>

  <!-- table -->
  <rect x="312" y="356" width="474" height="150" rx="14" fill="#ffffff" stroke="#06120c" stroke-opacity="0.06"/>
  <text x="332" y="380" font-size="11" font-weight="700" fill="#06120c" opacity="0.4">ALUNO</text>
  <text x="560" y="380" font-size="11" font-weight="700" fill="#06120c" opacity="0.4">TURMA</text>
  <text x="690" y="380" font-size="11" font-weight="700" fill="#06120c" opacity="0.4">STATUS</text>

  <g font-size="12.5" fill="#06120c">
    <text x="332" y="408">Rafael Pinto</text>
    <text x="560" y="408" opacity="0.6">Sub-11</text>
    <rect x="686" y="396" width="52" height="20" rx="10" fill="#d5fae2"/>
    <text x="696" y="410" font-size="10.5" font-weight="700" fill="#0a7642">Pago</text>

    <text x="332" y="438">Marina Alves</text>
    <text x="560" y="438" opacity="0.6">Sub-13</text>
    <rect x="686" y="426" width="52" height="20" rx="10" fill="#d5fae2"/>
    <text x="696" y="440" font-size="10.5" font-weight="700" fill="#0a7642">Pago</text>

    <text x="332" y="468">Caio Bezerra</text>
    <text x="560" y="468" opacity="0.6">Sub-9</text>
    <rect x="686" y="456" width="60" height="20" rx="10" fill="#fde8d5"/>
    <text x="694" y="470" font-size="10.5" font-weight="700" fill="#b45309">Em aberto</text>
  </g>

  <!-- side unit card -->
  <rect x="636" y="356" width="150" height="150" rx="14" fill="#06120c"/>
  <text x="652" y="382" font-size="11" font-weight="700" fill="#ffffff" opacity="0.55">UNIDADES</text>
  <text x="652" y="410" font-size="13" font-weight="700" fill="#ffffff">Centro</text>
  <text x="652" y="428" font-size="11" fill="#3fd47f">34 alunos ativos</text>
  <text x="652" y="460" font-size="13" font-weight="700" fill="#ffffff">Zona Sul</text>
  <text x="652" y="478" font-size="11" fill="#3fd47f">21 alunos ativos</text>
</svg>
